#N canvas 950 1099 960 984 12;
#X declare -path bytify;
#X obj 57 47 declare -path bytify;
#X obj 58 164 bytify;
#X listbox 58 194 97 0 0 0 - - - 0;
#X listbox 58 135 97 0 0 0 - - - 0;
#X obj 58 333 bytify;
#X listbox 58 363 97 0 0 0 - - - 0;
#X obj 58 303 pack s f f s f f f;
#X msg 58 273 b 100 123 f 1 123.456 -987.654, f 96;
#X connect 1 0 2 0;
#X connect 3 0 1 0;
#X connect 4 0 5 0;
#X connect 6 0 4 0;
#X connect 7 0 6 0;
