#N canvas -3 1135 1440 741 12;
#X declare -path bytify;
#X msg 208 195 devices;
#X msg 303 195 close;
#X obj 38 38 declare -path bytify;
#X floatatom 624 84 5 0 0 0 - 1-preset - 0;
#X obj 792 168 >> 8;
#X obj 739 169 % 256;
#X obj 624 122 t f f;
#X obj 739 205 t b f;
#X obj 622 271 pack 255 255 255 255 1 0 4 f f f f f f f;
#X msg 127 195 open 34;
#X obj 180 244 comport 0 115200;
#X obj 351 44 bng 50 250 50 0 empty empty empty 17 7 0 10 #fcfcfc #000000
#000000;
#X obj 249 110 pack 255 255 255 255 0 1 0 0 0 0 0 0 0 0;
#X obj 616 563 bytify;
#X listbox 616 593 97 0 0 0 - - - 0;
#X obj 616 533 pack s f f f f f f f f f f f f f f f f;
#X msg 616 503 b 255 255 255 255 1 0 4 24 0, f 96;
#X connect 0 0 10 0;
#X connect 1 0 10 0;
#X connect 3 0 6 0;
#X connect 4 0 8 8;
#X connect 5 0 7 0;
#X connect 6 0 5 0;
#X connect 6 1 4 0;
#X connect 7 0 8 0;
#X connect 7 1 8 7;
#X connect 8 0 10 0;
#X connect 9 0 10 0;
#X connect 11 0 12 0;
#X connect 12 0 10 0;
#X connect 13 0 14 0;
#X connect 13 0 10 0;
#X connect 15 0 13 0;
#X connect 16 0 15 0;
