#N canvas 0 0 1920 1011 12;
#X declare -path bytify;
#X msg 286 68 devices;
#X msg 235 68 close;
#X obj 38 38 declare -path bytify;
#X msg 169 68 open 34;
#X obj 38 98 comport 0 115200;
#X obj 1374 469 bytify;
#X floatatom 1687 371 7 0 0 0 - 1-preset - 0;
#X floatatom 1687 349 7 0 0 0 - 1-preset - 0;
#X obj 1374 439 pack s 255 255 255 255 f 0 4 s f;
#X obj 1444 379 loadbang;
#X msg 1570 409 symbol U16;
#X obj 1375 349 bng 50 250 50 0 empty empty empty 0 -10 0 12 #fcfcfc #000000 #000000;
#X msg 1374 409 symbol U8;
#X text 1740 349 SUID;
#X text 1739 370 Preset Index;
#X obj 194 259 bytify;
#X listbox 250 260 55 0 0 0 - - - 0;
#X floatatom 507 139 7 0 0 0 - 1-preset - 0;
#X obj 264 169 loadbang;
#X obj 195 139 bng 50 250 50 0 empty empty empty 0 -10 0 12 #fcfcfc #000000 #000000;
#X msg 194 199 symbol U8;
#X text 560 139 SUID;
#X obj 194 289 s xbcmd;
#X obj 38 68 r xbcmd;
#X text 72 156 CRMuxXbee Oneshot;
#X obj 194 469 bytify;
#X listbox 250 470 55 0 0 0 - - - 0;
#X floatatom 507 349 7 0 0 0 - 1-preset - 0;
#X obj 264 379 loadbang;
#X obj 195 349 bng 50 250 50 0 empty empty empty 0 -10 0 12 #fcfcfc #000000 #000000;
#X msg 194 409 symbol U8;
#X text 560 349 SUID;
#X obj 194 499 s xbcmd;
#X obj 194 439 pack s 255 255 255 255 f 0 0;
#X text 128 366 Idle Mode;
#X obj 784 469 bytify;
#X listbox 840 470 55 0 0 0 - - - 0;
#X floatatom 1097 349 7 0 0 0 - 1-preset - 0;
#X obj 854 379 loadbang;
#X obj 785 349 bng 50 250 50 0 empty empty empty 0 -10 0 12 #fcfcfc #000000 #000000;
#X msg 784 409 symbol U8;
#X text 1150 349 SUID;
#X obj 784 499 s xbcmd;
#X text 718 366 Free Mode;
#X obj 784 439 pack s 255 255 255 255 f 0 3;
#X listbox 1430 470 55 0 0 0 - - - 0;
#X obj 1374 499 s xbcmd;
#X text 1280 366 DoPreset Mode;
#X obj 1890 999 hsl 500 10 0 127 0 0 empty empty empty -2 -10 0 12 #fcfcfc #000000 #000000 0 1;
#X obj 194 229 pack s 255 255 255 255 f 1;
#X obj 784 259 bytify;
#X listbox 840 260 55 0 0 0 - - - 0;
#X floatatom 1097 139 7 0 0 0 - 1-preset - 0;
#X obj 854 169 loadbang;
#X obj 785 139 bng 50 250 50 0 empty empty empty 0 -10 0 12 #fcfcfc #000000 #000000;
#X msg 784 199 symbol U8;
#X text 1150 139 SUID;
#X obj 784 289 s xbcmd;
#X text 655 156 SetBaseYaw Oneshot;
#X obj 784 229 pack s 255 255 255 255 f 2;
#X connect 0 0 4 0;
#X connect 1 0 4 0;
#X connect 3 0 4 0;
#X connect 5 0 45 0;
#X connect 5 0 46 0;
#X connect 6 0 8 9;
#X connect 7 0 8 5;
#X connect 8 0 5 0;
#X connect 9 0 10 0;
#X connect 9 0 12 0;
#X connect 10 0 8 8;
#X connect 11 0 8 0;
#X connect 12 0 8 0;
#X connect 15 0 16 0;
#X connect 15 0 22 0;
#X connect 17 0 49 5;
#X connect 18 0 20 0;
#X connect 19 0 49 0;
#X connect 20 0 49 0;
#X connect 23 0 4 0;
#X connect 25 0 26 0;
#X connect 25 0 32 0;
#X connect 27 0 33 5;
#X connect 28 0 30 0;
#X connect 29 0 33 0;
#X connect 30 0 33 0;
#X connect 33 0 25 0;
#X connect 35 0 36 0;
#X connect 35 0 42 0;
#X connect 37 0 44 5;
#X connect 38 0 40 0;
#X connect 39 0 44 0;
#X connect 40 0 44 0;
#X connect 44 0 35 0;
#X connect 49 0 15 0;
#X connect 50 0 51 0;
#X connect 50 0 57 0;
#X connect 52 0 59 5;
#X connect 53 0 55 0;
#X connect 54 0 59 0;
#X connect 55 0 59 0;
#X connect 59 0 50 0;
