#N canvas 950 -8 960 1011 12;
#X declare -path bytify;
#X msg 286 68 devices;
#X msg 235 68 close;
#X obj 38 38 declare -path bytify;
#X obj 38 98 comport 0 115200;
#X obj 38 68 r xbcmd;
#X text 88 223 DoPreset Mode;
#X obj 1890 999 hsl 500 10 0 127 0 0 empty empty empty -2 -10 0 12 #fcfcfc #000000 #000000 0 1;
#X obj 182 326 bytify;
#X listbox 238 327 55 0 0 0 - - - 0;
#X floatatom 495 206 7 0 0 0 - 1-preset - 0;
#X obj 252 236 loadbang;
#X obj 183 206 bng 50 250 50 0 empty empty empty 0 -10 0 12 #fcfcfc #000000 #000000;
#X msg 182 266 symbol U8;
#X text 548 206 SUID;
#X obj 182 356 s xbcmd;
#X msg 295 266 symbol U16;
#X msg 374 266 symbol U8;
#X obj 453 159 t b f;
#X obj 453 205 <<;
#X obj 453 182 1;
#X obj 485 183 - 1;
#X obj 182 296 pack s 255 255 255 255 s f s 0 4 s f;
#X msg 446 266 symbol U16;
#X floatatom 495 228 7 0 0 0 - 1-preset - 0;
#X text 547 227 Preset Index;
#X msg 169 68 open 33;
#X connect 0 0 3 0;
#X connect 1 0 3 0;
#X connect 4 0 3 0;
#X connect 7 0 8 0;
#X connect 7 0 14 0;
#X connect 9 0 17 0;
#X connect 10 0 12 0;
#X connect 10 0 15 0;
#X connect 10 0 16 0;
#X connect 10 0 22 0;
#X connect 11 0 21 0;
#X connect 12 0 21 0;
#X connect 15 0 21 5;
#X connect 16 0 21 7;
#X connect 17 0 19 0;
#X connect 17 1 20 0;
#X connect 18 0 21 6;
#X connect 19 0 18 0;
#X connect 20 0 18 1;
#X connect 21 0 7 0;
#X connect 22 0 21 10;
#X connect 23 0 21 11;
#X connect 25 0 3 0;
